HIERARCHY
ROOT joint_Root
{
	OFFSET 0.0 0.0 0.0
	CHANNELS 6 Xposition Yposition Zposition Zrotation Xrotation Yrotation 
	JOINT Hips
	{
		OFFSET -0.726466 93.3139 -2.00062
		CHANNELS 6 Xposition Yposition Zposition Zrotation Xrotation Yrotation 
		JOINT Spine
		{
			OFFSET 15.7357 0.0 0.0
			CHANNELS 6 Xposition Yposition Zposition Zrotation Xrotation Yrotation 
			JOINT Chest
			{
				OFFSET 8.98455 -0.406207 0.0
				CHANNELS 6 Xposition Yposition Zposition Zrotation Xrotation Yrotation 
				JOINT Neck
				{
					OFFSET 16.3773 0.0 0.0
					CHANNELS 6 Xposition Yposition Zposition Zrotation Xrotation Yrotation 
					JOINT Head
					{
						OFFSET 6.45672 0.0 0.0
						CHANNELS 6 Xposition Yposition Zposition Zrotation Xrotation Yrotation 
						End Site
						{
							OFFSET 0.0 0.0 0.0
						}
					}
				}
				JOINT Shoulder_L
				{
					OFFSET 12.9942 -0.242716 4.98039
					CHANNELS 6 Xposition Yposition Zposition Zrotation Xrotation Yrotation 
					JOINT UpperArm_L
					{
						OFFSET 5.34809 0.0 0.0
						CHANNELS 6 Xposition Yposition Zposition Zrotation Xrotation Yrotation 
						JOINT LowerArm_L
						{
							OFFSET 24.3286 1.87007e-05 0.0
							CHANNELS 6 Xposition Yposition Zposition Zrotation Xrotation Yrotation 
							JOINT Hand_L
							{
								OFFSET 22.2916 0.0 0.0
								CHANNELS 6 Xposition Yposition Zposition Zrotation Xrotation Yrotation 
								End Site
								{
									OFFSET 0.0 0.0 0.0
								}
							}
						}
					}
				}
				JOINT Shoulder_R
				{
					OFFSET 12.9945 -0.242716 -4.98039
					CHANNELS 6 Xposition Yposition Zposition Zrotation Xrotation Yrotation 
					JOINT UpperArm_R
					{
						OFFSET -5.34813 0.0 0.0
						CHANNELS 6 Xposition Yposition Zposition Zrotation Xrotation Yrotation 
						JOINT LowerArm_R
						{
							OFFSET -24.3289 0.000322201 0.0
							CHANNELS 6 Xposition Yposition Zposition Zrotation Xrotation Yrotation 
							JOINT Hand_R
							{
								OFFSET -22.2915 -0.000108084 0.0
								CHANNELS 6 Xposition Yposition Zposition Zrotation Xrotation Yrotation 
								End Site
								{
									OFFSET 0.0 0.0 0.0
								}
							}
						}
					}
				}
			}
		}
		JOINT UpperLeg_L
		{
			OFFSET -2.19248 -6.46944 0.0
			CHANNELS 6 Xposition Yposition Zposition Zrotation Xrotation Yrotation 
			JOINT LowerLeg_L
			{
				OFFSET 39.0811 0.0 -1.23785e-05
				CHANNELS 6 Xposition Yposition Zposition Zrotation Xrotation Yrotation 
				JOINT Foot_L
				{
					OFFSET 40.9854 0.0 -1.26872e-05
					CHANNELS 6 Xposition Yposition Zposition Zrotation Xrotation Yrotation 
					JOINT Toes_L
					{
						OFFSET 11.7543 0.0 0.0
						CHANNELS 6 Xposition Yposition Zposition Zrotation Xrotation Yrotation 
						End Site
						{
							OFFSET 0.0 0.0 0.0
						}
					}
				}
			}
		}
		JOINT UpperLeg_R
		{
			OFFSET -2.19251 6.46944 0.0
			CHANNELS 6 Xposition Yposition Zposition Zrotation Xrotation Yrotation 
			JOINT LowerLeg_R
			{
				OFFSET -39.0811 -0.00228153 -0.0401928
				CHANNELS 6 Xposition Yposition Zposition Zrotation Xrotation Yrotation 
				JOINT Foot_R
				{
					OFFSET -40.9854 0.0 0.0
					CHANNELS 6 Xposition Yposition Zposition Zrotation Xrotation Yrotation 
					JOINT Toes_R
					{
						OFFSET -11.7543 0.0 0.0
						CHANNELS 6 Xposition Yposition Zposition Zrotation Xrotation Yrotation 
						End Site
						{
							OFFSET 0.0 0.0 0.0
						}
					}
				}
			}
		}
	}
}
MOTION
Frames:	9
Frame Time:	0.0333333
0.000000 0.000000 0.000000 0.000000 0.000000 -0.000000 -1.128520 92.363400 -3.527720 88.013700 -1.280800 5.712530 15.735700 0.000005 -0.000001 85.045000 84.464100 -84.371100 8.984550 -0.406207 -0.000000 3.270970 -0.981678 1.374320 16.377300 -0.000001 -0.000001 3.623820 -2.471730 1.536850 6.456720 -0.000001 -0.000000 3.828620 -2.399120 -2.214810 12.994200 -0.242716 4.980390 -90.021800 0.070149 -72.753800 5.348090 -0.000007 -0.000001 -67.648400 40.981700 -15.102600 24.328600 0.000019 0.000005 0.488443 1.184770 -22.405100 22.291600 -0.000001 0.000005 4.348590 5.468370 -5.309240 12.994500 -0.242716 -4.980390 88.239200 6.094420 -73.851200 -5.348130 -0.000001 -0.000004 -64.492100 39.446000 -17.576900 -24.328900 0.000322 -0.000009 2.574580 7.875290 -18.175000 -22.291500 -0.000108 -0.000004 6.313180 5.337520 -1.004350 -2.192480 -6.469440 -0.000000 -175.225000 -6.606800 -3.081330 39.081100 -0.000007 -0.000012 -0.098437 0.225377 23.594200 40.985400 -0.000006 -0.000013 -0.591316 2.462580 -64.930700 11.754300 -0.000000 0.000003 -0.000023 -0.000291 -16.588900 -2.192510 6.469440 -0.000001 -179.994000 14.742300 179.978000 -39.081100 -0.002282 -0.040193 -0.026466 0.081004 20.189800 -40.985400 0.000008 0.000006 3.950310 6.278980 -64.950600 -11.754300 -0.000006 -0.000006 -0.006239 -0.072992 -19.543900
0.000000 0.000000 0.000000 0.000000 0.000000 -0.000000 -1.097280 92.371900 -3.515100 88.026200 -1.207540 5.629330 15.735700 0.000005 -0.000001 85.128700 84.495900 -84.506200 8.984550 -0.406207 -0.000000 3.208340 -0.958525 1.270490 16.377300 -0.000001 -0.000001 3.520670 -2.292480 1.484000 6.456720 -0.000001 -0.000000 3.653520 -2.158270 -2.210830 12.994200 -0.242716 4.980390 -90.023700 0.075730 -72.656300 5.348090 -0.000007 -0.000001 -67.669500 40.657700 -15.056500 24.328600 0.000019 0.000005 0.560372 1.366910 -22.292300 22.291600 -0.000001 0.000005 4.338790 5.467990 -5.295280 12.994500 -0.242716 -4.980390 88.239800 6.010390 -73.643400 -5.348130 -0.000001 -0.000004 -63.512300 39.438600 -17.976400 -24.328900 0.000322 -0.000009 3.015850 8.094700 -20.519300 -22.291500 -0.000108 -0.000004 5.148350 5.320530 -0.508832 -2.192480 -6.469440 -0.000000 -175.270000 -6.576530 -3.142180 39.081100 -0.000007 -0.000012 -0.097955 0.224916 23.534000 40.985400 -0.000006 -0.000013 -0.568152 2.482890 -64.900500 11.754300 -0.000000 0.000003 -0.000021 -0.000259 -16.587700 -2.192510 6.469440 -0.000001 179.982000 14.826800 179.937000 -39.081100 -0.002282 -0.040193 -0.026009 0.080038 20.125400 -40.985400 0.000008 0.000006 3.920430 6.304100 -64.925400 -11.754300 -0.000006 -0.000006 -0.006460 -0.074959 -19.624200
0.000000 0.000000 0.000000 0.000000 0.000000 -0.000000 -1.087830 92.387500 -3.536700 88.015700 -1.193290 5.548300 15.735700 0.000005 -0.000001 85.080100 84.517300 -84.509600 8.984550 -0.406207 -0.000000 3.164310 -0.962309 1.166400 16.377300 -0.000001 -0.000001 3.413150 -2.065020 1.437610 6.456720 -0.000001 -0.000000 3.281100 -1.776120 -2.250480 12.994200 -0.242716 4.980390 -90.021400 0.067827 -72.483200 5.348090 -0.000007 -0.000001 -67.761900 40.288500 -14.909900 24.328600 0.000019 0.000005 0.605026 1.475350 -22.299400 22.291600 -0.000001 0.000005 4.373570 5.465910 -5.218480 12.994500 -0.242716 -4.980390 88.181800 6.051590 -73.242100 -5.348130 -0.000001 -0.000004 -61.503200 38.968400 -18.939900 -24.328900 0.000322 -0.000009 3.675160 7.999330 -24.782100 -22.291500 -0.000108 -0.000004 4.064350 5.305840 -0.091626 -2.192480 -6.469440 -0.000000 -175.281000 -6.611830 -3.195110 39.081100 -0.000007 -0.000012 -0.095704 0.220660 23.447200 40.985400 -0.000006 -0.000013 -0.542888 2.538050 -64.844100 11.754300 -0.000000 0.000003 -0.000020 -0.000255 -16.587500 -2.192510 6.469440 -0.000001 -179.970000 14.804000 179.875000 -39.081100 -0.002282 -0.040193 -0.023182 0.072680 20.035100 -40.985400 0.000008 0.000006 4.022880 6.245880 -64.872500 -11.754300 -0.000006 -0.000006 -0.006374 -0.074193 -19.592900
0.000000 0.000000 0.000000 0.000000 0.000000 -0.000000 -1.051650 92.387800 -3.553670 87.988100 -1.209510 5.445410 15.735700 0.000005 -0.000001 84.705900 84.542500 -84.181000 8.984550 -0.406207 -0.000000 3.107660 -1.027380 1.076500 16.377300 -0.000001 -0.000001 3.343680 -1.822310 1.376750 6.456720 -0.000001 -0.000000 2.892740 -1.314560 -2.280260 12.994200 -0.242716 4.980390 -90.017000 0.053450 -72.337800 5.348090 -0.000007 -0.000001 -67.909400 39.970200 -14.646400 24.328600 0.000019 0.000005 0.594119 1.444330 -22.360900 22.291600 -0.000001 0.000005 4.403670 5.464520 -5.166880 12.994500 -0.242716 -4.980390 88.108000 6.086980 -72.696800 -5.348130 -0.000001 -0.000004 -58.691700 37.445100 -20.681100 -24.328900 0.000322 -0.000009 4.523460 7.748840 -30.409800 -22.291500 -0.000108 -0.000004 3.851600 5.315550 -0.366622 -2.192480 -6.469440 -0.000000 -175.279000 -6.686910 -3.336030 39.081100 -0.000007 -0.000012 -0.096428 0.221916 23.486300 40.985400 -0.000006 -0.000013 -0.517983 2.550910 -64.844100 11.754300 -0.000000 0.000003 -0.000021 -0.000258 -16.587700 -2.192510 6.469440 -0.000001 -179.933000 14.782200 179.764000 -39.081100 -0.002282 -0.040193 -0.022943 0.072090 20.018300 -40.985400 0.000008 0.000006 3.980170 6.255110 -64.843100 -11.754300 -0.000006 -0.000006 -0.006434 -0.074725 -19.614600
0.000000 0.000000 0.000000 0.000000 0.000000 -0.000000 -1.000190 92.405100 -3.578520 87.977900 -1.361000 5.394560 15.735700 0.000005 -0.000001 84.397500 84.568000 -83.926800 8.984550 -0.406207 -0.000000 3.051060 -1.078870 0.969241 16.377300 -0.000001 -0.000001 3.301000 -1.631640 1.344600 6.456720 -0.000001 -0.000000 2.688040 -0.918485 -2.345420 12.994200 -0.242716 4.980390 -90.018800 0.058613 -72.260000 5.348090 -0.000007 -0.000001 -68.003900 39.759500 -14.371400 24.328600 0.000019 0.000005 0.650363 1.586440 -22.293600 22.291600 -0.000001 0.000005 4.338800 5.462930 -5.108370 12.994500 -0.242716 -4.980390 88.101800 5.916850 -72.177100 -5.348130 -0.000001 -0.000004 -55.498100 34.944700 -23.220400 -24.328900 0.000322 -0.000009 5.651100 7.582000 -36.868000 -22.291500 -0.000108 -0.000004 5.235040 5.328400 -0.739818 -2.192480 -6.469440 -0.000000 -175.302000 -6.787690 -3.330720 39.081100 -0.000007 -0.000012 -0.095519 0.220879 23.386100 40.985400 -0.000006 -0.000013 -0.490029 2.519910 -64.794000 11.754300 -0.000000 0.000003 -0.000023 -0.000288 -16.588800 -2.192510 6.469440 -0.000001 -179.919000 14.693600 179.723000 -39.081100 -0.002282 -0.040193 -0.019799 0.063783 19.924300 -40.985400 0.000008 0.000006 4.058270 6.310540 -64.770400 -11.754300 -0.000006 -0.000006 -0.006267 -0.073240 -19.554100
0.000000 0.000000 0.000000 0.000000 0.000000 -0.000000 -0.925308 92.408800 -3.619460 87.966500 -1.571400 5.339700 15.735700 0.000005 -0.000001 84.034800 84.625200 -83.630900 8.984550 -0.406207 -0.000000 2.930050 -1.133090 0.835939 16.377300 -0.000001 -0.000001 3.358010 -1.526380 1.387460 6.456720 -0.000001 -0.000000 2.616830 -0.630731 -2.419850 12.994200 -0.242716 4.980390 -90.015700 0.048802 -72.190700 5.348090 -0.000007 -0.000001 -68.116300 39.585900 -14.068800 24.328600 0.000019 0.000005 0.732713 1.801200 -22.139400 22.291600 -0.000001 0.000005 4.282550 5.459940 -4.998790 12.994500 -0.242716 -4.980390 88.171000 5.551750 -71.733300 -5.348130 -0.000001 -0.000004 -52.286100 31.362400 -26.399300 -24.328900 0.000322 -0.000009 7.745840 8.156050 -43.788000 -22.291500 -0.000108 -0.000004 7.300260 5.325260 -0.650316 -2.192480 -6.469440 -0.000000 -175.350000 -6.907690 -3.384240 39.081100 -0.000007 -0.000012 -0.093008 0.215016 23.391600 40.985400 -0.000006 -0.000013 -0.453988 2.406190 -64.793000 11.754300 -0.000000 0.000003 -0.000022 -0.000272 -16.588200 -2.192510 6.469440 -0.000001 -179.957000 14.647300 179.634000 -39.081100 -0.002282 -0.040193 -0.023118 0.073028 19.902700 -40.985400 0.000008 0.000006 3.908870 6.488260 -64.689600 -11.754300 -0.000006 -0.000006 -0.006151 -0.072198 -19.511600
0.000000 0.000000 0.000000 0.000000 0.000000 -0.000000 -0.859474 92.420000 -3.632300 87.946600 -1.840250 5.278930 15.735700 0.000005 -0.000001 84.142600 84.680200 -83.817600 8.984550 -0.406207 -0.000000 2.821580 -1.098800 0.676511 16.377300 -0.000001 -0.000001 3.378570 -1.498690 1.480820 6.456720 -0.000001 -0.000000 2.594120 -0.550504 -2.486090 12.994200 -0.242716 4.980390 -90.020900 0.064882 -72.125400 5.348090 -0.000007 -0.000001 -68.122000 39.434500 -14.003700 24.328600 0.000019 0.000005 0.795734 1.996320 -21.736700 22.291600 -0.000001 0.000005 4.420100 5.458840 -4.958580 12.994500 -0.242716 -4.980390 88.276400 5.122460 -71.374600 -5.348130 -0.000001 -0.000004 -49.290700 26.627800 -29.905300 -24.328900 0.000322 -0.000009 10.608200 8.687270 -51.108900 -22.291500 -0.000108 -0.000004 9.528090 5.313390 -0.307901 -2.192480 -6.469440 -0.000000 -175.370000 -7.076150 -3.393040 39.081100 -0.000007 -0.000012 -0.093010 0.215571 23.338200 40.985400 -0.000006 -0.000013 -0.434766 2.284480 -64.777700 11.754300 -0.000000 0.000003 -0.000020 -0.000249 -16.587300 -2.192510 6.469440 -0.000001 -179.946000 14.461900 179.567000 -39.081100 -0.002282 -0.040193 -0.021045 0.067489 19.851800 -40.985400 0.000008 0.000006 4.000400 6.589360 -64.644800 -11.754300 -0.000006 -0.000006 -0.006361 -0.074083 -19.588500
0.000000 0.000000 0.000000 0.000000 0.000000 -0.000000 -0.783446 92.415600 -3.649320 87.899700 -1.992310 5.297430 15.735700 0.000005 -0.000001 84.185500 84.724700 -83.927300 8.984550 -0.406207 -0.000000 2.733250 -1.079230 0.541820 16.377300 -0.000001 -0.000001 3.397810 -1.543500 1.573740 6.456720 -0.000001 -0.000000 2.553340 -0.638078 -2.576110 12.994200 -0.242716 4.980390 -90.025900 0.079797 -72.003800 5.348090 -0.000007 -0.000001 -68.213100 39.120100 -13.925300 24.328600 0.000019 0.000005 0.914738 2.337520 -21.377800 22.291600 -0.000001 0.000005 4.539080 5.458700 -4.953280 12.994500 -0.242716 -4.980390 88.409100 4.671800 -71.171000 -5.348130 -0.000001 -0.000004 -46.858100 20.749100 -33.268600 -24.328900 0.000322 -0.000009 13.860900 8.638570 -58.664600 -22.291500 -0.000108 -0.000004 12.141500 5.310770 -0.236869 -2.192480 -6.469440 -0.000000 -175.374000 -7.114290 -3.399850 39.081100 -0.000007 -0.000012 -0.092697 0.214040 23.416700 40.985400 -0.000006 -0.000013 -0.405944 2.161540 -64.826400 11.754300 -0.000000 0.000003 -0.000024 -0.000298 -16.589200 -2.192510 6.469440 -0.000001 -179.971000 14.472400 179.574000 -39.081100 -0.002282 -0.040193 -0.023436 0.074174 19.836200 -40.985400 0.000008 0.000006 3.832530 6.768100 -64.585700 -11.754300 -0.000006 -0.000006 -0.006016 -0.070983 -19.462000
0.000000 0.000000 0.000000 0.000000 0.000000 -0.000000 -0.730240 92.418800 -3.640660 87.881900 -2.059050 5.292050 15.735700 0.000005 -0.000001 84.577100 84.766800 -84.391500 8.984550 -0.406207 -0.000000 2.655510 -0.996557 0.393834 16.377300 -0.000001 -0.000001 3.365100 -1.625230 1.629030 6.456720 -0.000001 -0.000000 2.485440 -0.840843 -2.681450 12.994200 -0.242716 4.980390 -90.040400 0.123770 -71.939700 5.348090 -0.000007 -0.000001 -68.197400 38.864900 -13.960900 24.328600 0.000019 0.000005 0.965159 2.489260 -21.199800 22.291600 -0.000001 0.000005 4.587380 5.457460 -4.908300 12.994500 -0.242716 -4.980390 88.531000 4.266410 -70.980200 -5.348130 -0.000001 -0.000004 -45.634400 13.576900 -36.601200 -24.328900 0.000322 -0.000009 17.175700 7.994060 -65.770000 -22.291500 -0.000108 -0.000004 14.414600 5.294850 0.212467 -2.192480 -6.469440 -0.000000 -175.395000 -7.156820 -3.390770 39.081100 -0.000007 -0.000012 -0.091346 0.210949 23.413900 40.985400 -0.000006 -0.000013 -0.370710 2.131300 -64.837900 11.754300 -0.000000 0.000003 -0.000020 -0.000250 -16.587400 -2.192510 6.469440 -0.000001 -179.982000 14.437700 179.573000 -39.081100 -0.002282 -0.040193 -0.020958 0.067354 19.822900 -40.985400 0.000008 0.000006 3.908020 6.811370 -64.584800 -11.754300 -0.000006 -0.000006 -0.006228 -0.072889 -19.539800
